<svg xmlns="http://www.w3.org/2000/svg" width="78" height="25.715" viewBox="0 0 78 25.715">
  <g id="Logo" transform="translate(-805.445 -1316.028)">
    <path id="Tracé_1" data-name="Tracé 1" d="M816.526,1335.268H805.445v-19.24h11.081v3.343h-7v4.224h6.514v3.343h-6.514v4.962h7Z" fill="#fff"/>
    <path id="Tracé_2" data-name="Tracé 2" d="M880.044,1347.838l-4.738-7.2h4.553l2.856,4.685,2.882-4.685h4.554l-4.79,7.2,5.014,7.515h-4.567l-3.093-5.04-3.106,5.04h-4.553Z" transform="translate(-56.806 -20.084)" fill="#fff"/>
    <path id="Tracé_3" data-name="Tracé 3" d="M978.573,1354.39a4.878,4.878,0,0,1-4.066-1.882H974.3q.211,1.843.211,2.132v5.962h-4.014v-21.188h3.264l.566,1.908h.184a4.643,4.643,0,0,1,4.172-2.185,4.774,4.774,0,0,1,4.08,2.013,9.313,9.313,0,0,1,1.474,5.593,11.043,11.043,0,0,1-.691,4.093,5.743,5.743,0,0,1-1.968,2.645A5.042,5.042,0,0,1,978.573,1354.39Zm-1.185-12.042a2.534,2.534,0,0,0-2.171.914,5.25,5.25,0,0,0-.711,3.02v.435a6.2,6.2,0,0,0,.7,3.4,2.513,2.513,0,0,0,2.231,1.026q2.7,0,2.7-4.448a6.351,6.351,0,0,0-.665-3.257A2.268,2.268,0,0,0,977.388,1342.348Z" transform="translate(-134.686 -18.858)" fill="#fff"/>
    <path id="Tracé_4" data-name="Tracé 4" d="M1063.153,1343.653a6.06,6.06,0,0,0-.71,3.283,6.171,6.171,0,0,0,.717,3.3q.049.077.1.148a6.216,6.216,0,0,1,1.3,3.7v.456a7.035,7.035,0,0,1-2.857-.883,6.166,6.166,0,0,1-2.487-2.665,8.947,8.947,0,0,1-.868-4.052,7.864,7.864,0,0,1,1.882-5.607,6.514,6.514,0,0,1,4.33-1.957v.5a6.014,6.014,0,0,1-1.307,3.637Q1063.2,1343.577,1063.153,1343.653Z" transform="translate(-206.383 -19.05)" fill="#ff8400"/>
    <path id="Tracé_5" data-name="Tracé 5" d="M1111.334,1346.928a7.907,7.907,0,0,1-1.895,5.618,6.5,6.5,0,0,1-4.319,1.983v-.446a6.183,6.183,0,0,1,1.3-3.69c.037-.05.073-.1.107-.156a6.268,6.268,0,0,0,.7-3.309,6.072,6.072,0,0,0-.712-3.278q-.049-.075-.1-.144a6.02,6.02,0,0,1-1.295-3.625v-.519a7.1,7.1,0,0,1,2.859.879,6.158,6.158,0,0,1,2.487,2.645A8.893,8.893,0,0,1,1111.334,1346.928Z" transform="translate(-244.549 -19.042)" fill="#ff8400"/>
    <path id="Tracé_6" data-name="Tracé 6" d="M1151.184,1347.838l-4.738-7.2H1151l2.856,4.685,2.882-4.685h4.554l-4.79,7.2,5.014,7.515h-4.567l-3.093-5.04-3.106,5.04H1146.2Z" transform="translate(-278.07 -20.084)" fill="#ff8400"/>
  </g>
</svg>
